0
SECTION
2
HEADER
9
$ACADVER
1
AC1006
9
$INSUNITS
70
4
0
ENDSEC
0
SECTION
2
ENTITIES
0
SOLID
8
barcode
10
0.0
20
1.8
30
0
11
0.1
21
1.8
31
0
12
0.0
22
1.7
32
0
13
0.1
23
1.7
33
0
0
SOLID
8
barcode
10
0.1
20
1.8
30
0
11
0.2
21
1.8
31
0
12
0.1
22
1.7
32
0
13
0.2
23
1.7
33
0
0
SOLID
8
barcode
10
0.2
20
1.8
30
0
11
0.30000000000000004
21
1.8
31
0
12
0.2
22
1.7
32
0
13
0.30000000000000004
23
1.7
33
0
0
SOLID
8
barcode
10
0.30000000000000004
20
1.8
30
0
11
0.4
21
1.8
31
0
12
0.30000000000000004
22
1.7
32
0
13
0.4
23
1.7
33
0
0
SOLID
8
barcode
10
0.4
20
1.8
30
0
11
0.5
21
1.8
31
0
12
0.4
22
1.7
32
0
13
0.5
23
1.7
33
0
0
SOLID
8
barcode
10
0.5
20
1.8
30
0
11
0.6
21
1.8
31
0
12
0.5
22
1.7
32
0
13
0.6
23
1.7
33
0
0
SOLID
8
barcode
10
0.6000000000000001
20
1.8
30
0
11
0.7000000000000001
21
1.8
31
0
12
0.6000000000000001
22
1.7
32
0
13
0.7000000000000001
23
1.7
33
0
0
SOLID
8
barcode
10
0.7000000000000001
20
1.8
30
0
11
0.8
21
1.8
31
0
12
0.7000000000000001
22
1.7
32
0
13
0.8
23
1.7
33
0
0
SOLID
8
barcode
10
0.8
20
1.8
30
0
11
0.9
21
1.8
31
0
12
0.8
22
1.7
32
0
13
0.9
23
1.7
33
0
0
SOLID
8
barcode
10
0.9
20
1.8
30
0
11
1.0
21
1.8
31
0
12
0.9
22
1.7
32
0
13
1.0
23
1.7
33
0
0
SOLID
8
barcode
10
1.0
20
1.8
30
0
11
1.1
21
1.8
31
0
12
1.0
22
1.7
32
0
13
1.1
23
1.7
33
0
0
SOLID
8
barcode
10
1.1
20
1.8
30
0
11
1.2000000000000002
21
1.8
31
0
12
1.1
22
1.7
32
0
13
1.2000000000000002
23
1.7
33
0
0
SOLID
8
barcode
10
1.2000000000000002
20
1.8
30
0
11
1.3000000000000003
21
1.8
31
0
12
1.2000000000000002
22
1.7
32
0
13
1.3000000000000003
23
1.7
33
0
0
SOLID
8
barcode
10
1.3
20
1.8
30
0
11
1.4000000000000001
21
1.8
31
0
12
1.3
22
1.7
32
0
13
1.4000000000000001
23
1.7
33
0
0
SOLID
8
barcode
10
1.4000000000000001
20
1.8
30
0
11
1.5000000000000002
21
1.8
31
0
12
1.4000000000000001
22
1.7
32
0
13
1.5000000000000002
23
1.7
33
0
0
SOLID
8
barcode
10
1.5
20
1.8
30
0
11
1.6
21
1.8
31
0
12
1.5
22
1.7
32
0
13
1.6
23
1.7
33
0
0
SOLID
8
barcode
10
1.6
20
1.8
30
0
11
1.7000000000000002
21
1.8
31
0
12
1.6
22
1.7
32
0
13
1.7000000000000002
23
1.7
33
0
0
SOLID
8
barcode
10
1.7000000000000002
20
1.8
30
0
11
1.8000000000000003
21
1.8
31
0
12
1.7000000000000002
22
1.7
32
0
13
1.8000000000000003
23
1.7
33
0
0
SOLID
8
barcode
10
0.0
20
1.7000000000000002
30
0
11
0.1
21
1.7000000000000002
31
0
12
0.0
22
1.6
32
0
13
0.1
23
1.6
33
0
0
SOLID
8
barcode
10
0.1
20
1.7000000000000002
30
0
11
0.2
21
1.7000000000000002
31
0
12
0.1
22
1.6
32
0
13
0.2
23
1.6
33
0
0
SOLID
8
barcode
10
0.2
20
1.7000000000000002
30
0
11
0.30000000000000004
21
1.7000000000000002
31
0
12
0.2
22
1.6
32
0
13
0.30000000000000004
23
1.6
33
0
0
SOLID
8
barcode
10
0.30000000000000004
20
1.7000000000000002
30
0
11
0.4
21
1.7000000000000002
31
0
12
0.30000000000000004
22
1.6
32
0
13
0.4
23
1.6
33
0
0
SOLID
8
barcode
10
0.4
20
1.7000000000000002
30
0
11
0.5
21
1.7000000000000002
31
0
12
0.4
22
1.6
32
0
13
0.5
23
1.6
33
0
0
SOLID
8
barcode
10
0.5
20
1.7000000000000002
30
0
11
0.6
21
1.7000000000000002
31
0
12
0.5
22
1.6
32
0
13
0.6
23
1.6
33
0
0
SOLID
8
barcode
10
0.6000000000000001
20
1.7000000000000002
30
0
11
0.7000000000000001
21
1.7000000000000002
31
0
12
0.6000000000000001
22
1.6
32
0
13
0.7000000000000001
23
1.6
33
0
0
SOLID
8
barcode
10
0.7000000000000001
20
1.7000000000000002
30
0
11
0.8
21
1.7000000000000002
31
0
12
0.7000000000000001
22
1.6
32
0
13
0.8
23
1.6
33
0
0
SOLID
8
barcode
10
0.8
20
1.7000000000000002
30
0
11
0.9
21
1.7000000000000002
31
0
12
0.8
22
1.6
32
0
13
0.9
23
1.6
33
0
0
SOLID
8
barcode
10
0.9
20
1.7000000000000002
30
0
11
1.0
21
1.7000000000000002
31
0
12
0.9
22
1.6
32
0
13
1.0
23
1.6
33
0
0
SOLID
8
barcode
10
1.0
20
1.7000000000000002
30
0
11
1.1
21
1.7000000000000002
31
0
12
1.0
22
1.6
32
0
13
1.1
23
1.6
33
0
0
SOLID
8
barcode
10
1.1
20
1.7000000000000002
30
0
11
1.2000000000000002
21
1.7000000000000002
31
0
12
1.1
22
1.6
32
0
13
1.2000000000000002
23
1.6
33
0
0
SOLID
8
barcode
10
1.2000000000000002
20
1.7000000000000002
30
0
11
1.3000000000000003
21
1.7000000000000002
31
0
12
1.2000000000000002
22
1.6
32
0
13
1.3000000000000003
23
1.6
33
0
0
SOLID
8
barcode
10
1.3
20
1.7000000000000002
30
0
11
1.4000000000000001
21
1.7000000000000002
31
0
12
1.3
22
1.6
32
0
13
1.4000000000000001
23
1.6
33
0
0
SOLID
8
barcode
10
1.4000000000000001
20
1.7000000000000002
30
0
11
1.5000000000000002
21
1.7000000000000002
31
0
12
1.4000000000000001
22
1.6
32
0
13
1.5000000000000002
23
1.6
33
0
0
SOLID
8
barcode
10
1.5
20
1.7000000000000002
30
0
11
1.6
21
1.7000000000000002
31
0
12
1.5
22
1.6
32
0
13
1.6
23
1.6
33
0
0
SOLID
8
barcode
10
1.6
20
1.7000000000000002
30
0
11
1.7000000000000002
21
1.7000000000000002
31
0
12
1.6
22
1.6
32
0
13
1.7000000000000002
23
1.6
33
0
0
SOLID
8
barcode
10
1.7000000000000002
20
1.7000000000000002
30
0
11
1.8000000000000003
21
1.7000000000000002
31
0
12
1.7000000000000002
22
1.6
32
0
13
1.8000000000000003
23
1.6
33
0
0
SOLID
8
barcode
10
0.0
20
1.6
30
0
11
0.1
21
1.6
31
0
12
0.0
22
1.5
32
0
13
0.1
23
1.5
33
0
0
SOLID
8
barcode
10
0.1
20
1.6
30
0
11
0.2
21
1.6
31
0
12
0.1
22
1.5
32
0
13
0.2
23
1.5
33
0
0
SOLID
8
barcode
10
0.30000000000000004
20
1.6
30
0
11
0.4
21
1.6
31
0
12
0.30000000000000004
22
1.5
32
0
13
0.4
23
1.5
33
0
0
SOLID
8
barcode
10
0.5
20
1.6
30
0
11
0.6
21
1.6
31
0
12
0.5
22
1.5
32
0
13
0.6
23
1.5
33
0
0
SOLID
8
barcode
10
0.7000000000000001
20
1.6
30
0
11
0.8
21
1.6
31
0
12
0.7000000000000001
22
1.5
32
0
13
0.8
23
1.5
33
0
0
SOLID
8
barcode
10
0.9
20
1.6
30
0
11
1.0
21
1.6
31
0
12
0.9
22
1.5
32
0
13
1.0
23
1.5
33
0
0
SOLID
8
barcode
10
1.1
20
1.6
30
0
11
1.2000000000000002
21
1.6
31
0
12
1.1
22
1.5
32
0
13
1.2000000000000002
23
1.5
33
0
0
SOLID
8
barcode
10
1.3
20
1.6
30
0
11
1.4000000000000001
21
1.6
31
0
12
1.3
22
1.5
32
0
13
1.4000000000000001
23
1.5
33
0
0
SOLID
8
barcode
10
1.5
20
1.6
30
0
11
1.6
21
1.6
31
0
12
1.5
22
1.5
32
0
13
1.6
23
1.5
33
0
0
SOLID
8
barcode
10
1.6
20
1.6
30
0
11
1.7000000000000002
21
1.6
31
0
12
1.6
22
1.5
32
0
13
1.7000000000000002
23
1.5
33
0
0
SOLID
8
barcode
10
1.7000000000000002
20
1.6
30
0
11
1.8000000000000003
21
1.6
31
0
12
1.7000000000000002
22
1.5
32
0
13
1.8000000000000003
23
1.5
33
0
0
SOLID
8
barcode
10
0.0
20
1.5
30
0
11
0.1
21
1.5
31
0
12
0.0
22
1.4
32
0
13
0.1
23
1.4
33
0
0
SOLID
8
barcode
10
0.1
20
1.5
30
0
11
0.2
21
1.5
31
0
12
0.1
22
1.4
32
0
13
0.2
23
1.4
33
0
0
SOLID
8
barcode
10
0.30000000000000004
20
1.5
30
0
11
0.4
21
1.5
31
0
12
0.30000000000000004
22
1.4
32
0
13
0.4
23
1.4
33
0
0
SOLID
8
barcode
10
0.5
20
1.5
30
0
11
0.6
21
1.5
31
0
12
0.5
22
1.4
32
0
13
0.6
23
1.4
33
0
0
SOLID
8
barcode
10
0.7000000000000001
20
1.5
30
0
11
0.8
21
1.5
31
0
12
0.7000000000000001
22
1.4
32
0
13
0.8
23
1.4
33
0
0
SOLID
8
barcode
10
0.8
20
1.5
30
0
11
0.9
21
1.5
31
0
12
0.8
22
1.4
32
0
13
0.9
23
1.4
33
0
0
SOLID
8
barcode
10
0.9
20
1.5
30
0
11
1.0
21
1.5
31
0
12
0.9
22
1.4
32
0
13
1.0
23
1.4
33
0
0
SOLID
8
barcode
10
1.0
20
1.5
30
0
11
1.1
21
1.5
31
0
12
1.0
22
1.4
32
0
13
1.1
23
1.4
33
0
0
SOLID
8
barcode
10
1.3
20
1.5
30
0
11
1.4000000000000001
21
1.5
31
0
12
1.3
22
1.4
32
0
13
1.4000000000000001
23
1.4
33
0
0
SOLID
8
barcode
10
1.4000000000000001
20
1.5
30
0
11
1.5000000000000002
21
1.5
31
0
12
1.4000000000000001
22
1.4
32
0
13
1.5000000000000002
23
1.4
33
0
0
SOLID
8
barcode
10
1.6
20
1.5
30
0
11
1.7000000000000002
21
1.5
31
0
12
1.6
22
1.4
32
0
13
1.7000000000000002
23
1.4
33
0
0
SOLID
8
barcode
10
1.7000000000000002
20
1.5
30
0
11
1.8000000000000003
21
1.5
31
0
12
1.7000000000000002
22
1.4
32
0
13
1.8000000000000003
23
1.4
33
0
0
SOLID
8
barcode
10
0.0
20
1.4000000000000001
30
0
11
0.1
21
1.4000000000000001
31
0
12
0.0
22
1.3
32
0
13
0.1
23
1.3
33
0
0
SOLID
8
barcode
10
0.1
20
1.4000000000000001
30
0
11
0.2
21
1.4000000000000001
31
0
12
0.1
22
1.3
32
0
13
0.2
23
1.3
33
0
0
SOLID
8
barcode
10
0.30000000000000004
20
1.4000000000000001
30
0
11
0.4
21
1.4000000000000001
31
0
12
0.30000000000000004
22
1.3
32
0
13
0.4
23
1.3
33
0
0
SOLID
8
barcode
10
0.4
20
1.4000000000000001
30
0
11
0.5
21
1.4000000000000001
31
0
12
0.4
22
1.3
32
0
13
0.5
23
1.3
33
0
0
SOLID
8
barcode
10
0.6000000000000001
20
1.4000000000000001
30
0
11
0.7000000000000001
21
1.4000000000000001
31
0
12
0.6000000000000001
22
1.3
32
0
13
0.7000000000000001
23
1.3
33
0
0
SOLID
8
barcode
10
0.9
20
1.4000000000000001
30
0
11
1.0
21
1.4000000000000001
31
0
12
0.9
22
1.3
32
0
13
1.0
23
1.3
33
0
0
SOLID
8
barcode
10
1.0
20
1.4000000000000001
30
0
11
1.1
21
1.4000000000000001
31
0
12
1.0
22
1.3
32
0
13
1.1
23
1.3
33
0
0
SOLID
8
barcode
10
1.4000000000000001
20
1.4000000000000001
30
0
11
1.5000000000000002
21
1.4000000000000001
31
0
12
1.4000000000000001
22
1.3
32
0
13
1.5000000000000002
23
1.3
33
0
0
SOLID
8
barcode
10
1.5
20
1.4000000000000001
30
0
11
1.6
21
1.4000000000000001
31
0
12
1.5
22
1.3
32
0
13
1.6
23
1.3
33
0
0
SOLID
8
barcode
10
1.6
20
1.4000000000000001
30
0
11
1.7000000000000002
21
1.4000000000000001
31
0
12
1.6
22
1.3
32
0
13
1.7000000000000002
23
1.3
33
0
0
SOLID
8
barcode
10
1.7000000000000002
20
1.4000000000000001
30
0
11
1.8000000000000003
21
1.4000000000000001
31
0
12
1.7000000000000002
22
1.3
32
0
13
1.8000000000000003
23
1.3
33
0
0
SOLID
8
barcode
10
0.0
20
1.3
30
0
11
0.1
21
1.3
31
0
12
0.0
22
1.2
32
0
13
0.1
23
1.2
33
0
0
SOLID
8
barcode
10
0.1
20
1.3
30
0
11
0.2
21
1.3
31
0
12
0.1
22
1.2
32
0
13
0.2
23
1.2
33
0
0
SOLID
8
barcode
10
0.5
20
1.3
30
0
11
0.6
21
1.3
31
0
12
0.5
22
1.2
32
0
13
0.6
23
1.2
33
0
0
SOLID
8
barcode
10
0.6000000000000001
20
1.3
30
0
11
0.7000000000000001
21
1.3
31
0
12
0.6000000000000001
22
1.2
32
0
13
0.7000000000000001
23
1.2
33
0
0
SOLID
8
barcode
10
0.8
20
1.3
30
0
11
0.9
21
1.3
31
0
12
0.8
22
1.2
32
0
13
0.9
23
1.2
33
0
0
SOLID
8
barcode
10
0.9
20
1.3
30
0
11
1.0
21
1.3
31
0
12
0.9
22
1.2
32
0
13
1.0
23
1.2
33
0
0
SOLID
8
barcode
10
1.4000000000000001
20
1.3
30
0
11
1.5000000000000002
21
1.3
31
0
12
1.4000000000000001
22
1.2
32
0
13
1.5000000000000002
23
1.2
33
0
0
SOLID
8
barcode
10
1.6
20
1.3
30
0
11
1.7000000000000002
21
1.3
31
0
12
1.6
22
1.2
32
0
13
1.7000000000000002
23
1.2
33
0
0
SOLID
8
barcode
10
1.7000000000000002
20
1.3
30
0
11
1.8000000000000003
21
1.3
31
0
12
1.7000000000000002
22
1.2
32
0
13
1.8000000000000003
23
1.2
33
0
0
SOLID
8
barcode
10
0.0
20
1.2000000000000002
30
0
11
0.1
21
1.2000000000000002
31
0
12
0.0
22
1.1
32
0
13
0.1
23
1.1
33
0
0
SOLID
8
barcode
10
0.1
20
1.2000000000000002
30
0
11
0.2
21
1.2000000000000002
31
0
12
0.1
22
1.1
32
0
13
0.2
23
1.1
33
0
0
SOLID
8
barcode
10
0.30000000000000004
20
1.2000000000000002
30
0
11
0.4
21
1.2000000000000002
31
0
12
0.30000000000000004
22
1.1
32
0
13
0.4
23
1.1
33
0
0
SOLID
8
barcode
10
0.4
20
1.2000000000000002
30
0
11
0.5
21
1.2000000000000002
31
0
12
0.4
22
1.1
32
0
13
0.5
23
1.1
33
0
0
SOLID
8
barcode
10
0.6000000000000001
20
1.2000000000000002
30
0
11
0.7000000000000001
21
1.2000000000000002
31
0
12
0.6000000000000001
22
1.1
32
0
13
0.7000000000000001
23
1.1
33
0
0
SOLID
8
barcode
10
1.1
20
1.2000000000000002
30
0
11
1.2000000000000002
21
1.2000000000000002
31
0
12
1.1
22
1.1
32
0
13
1.2000000000000002
23
1.1
33
0
0
SOLID
8
barcode
10
1.2000000000000002
20
1.2000000000000002
30
0
11
1.3000000000000003
21
1.2000000000000002
31
0
12
1.2000000000000002
22
1.1
32
0
13
1.3000000000000003
23
1.1
33
0
0
SOLID
8
barcode
10
1.3
20
1.2000000000000002
30
0
11
1.4000000000000001
21
1.2000000000000002
31
0
12
1.3
22
1.1
32
0
13
1.4000000000000001
23
1.1
33
0
0
SOLID
8
barcode
10
1.5
20
1.2000000000000002
30
0
11
1.6
21
1.2000000000000002
31
0
12
1.5
22
1.1
32
0
13
1.6
23
1.1
33
0
0
SOLID
8
barcode
10
1.6
20
1.2000000000000002
30
0
11
1.7000000000000002
21
1.2000000000000002
31
0
12
1.6
22
1.1
32
0
13
1.7000000000000002
23
1.1
33
0
0
SOLID
8
barcode
10
1.7000000000000002
20
1.2000000000000002
30
0
11
1.8000000000000003
21
1.2000000000000002
31
0
12
1.7000000000000002
22
1.1
32
0
13
1.8000000000000003
23
1.1
33
0
0
SOLID
8
barcode
10
0.0
20
1.1
30
0
11
0.1
21
1.1
31
0
12
0.0
22
1.0
32
0
13
0.1
23
1.0
33
0
0
SOLID
8
barcode
10
0.1
20
1.1
30
0
11
0.2
21
1.1
31
0
12
0.1
22
1.0
32
0
13
0.2
23
1.0
33
0
0
SOLID
8
barcode
10
0.30000000000000004
20
1.1
30
0
11
0.4
21
1.1
31
0
12
0.30000000000000004
22
1.0
32
0
13
0.4
23
1.0
33
0
0
SOLID
8
barcode
10
0.4
20
1.1
30
0
11
0.5
21
1.1
31
0
12
0.4
22
1.0
32
0
13
0.5
23
1.0
33
0
0
SOLID
8
barcode
10
0.6000000000000001
20
1.1
30
0
11
0.7000000000000001
21
1.1
31
0
12
0.6000000000000001
22
1.0
32
0
13
0.7000000000000001
23
1.0
33
0
0
SOLID
8
barcode
10
0.9
20
1.1
30
0
11
1.0
21
1.1
31
0
12
0.9
22
1.0
32
0
13
1.0
23
1.0
33
0
0
SOLID
8
barcode
10
1.0
20
1.1
30
0
11
1.1
21
1.1
31
0
12
1.0
22
1.0
32
0
13
1.1
23
1.0
33
0
0
SOLID
8
barcode
10
1.1
20
1.1
30
0
11
1.2000000000000002
21
1.1
31
0
12
1.1
22
1.0
32
0
13
1.2000000000000002
23
1.0
33
0
0
SOLID
8
barcode
10
1.3
20
1.1
30
0
11
1.4000000000000001
21
1.1
31
0
12
1.3
22
1.0
32
0
13
1.4000000000000001
23
1.0
33
0
0
SOLID
8
barcode
10
1.4000000000000001
20
1.1
30
0
11
1.5000000000000002
21
1.1
31
0
12
1.4000000000000001
22
1.0
32
0
13
1.5000000000000002
23
1.0
33
0
0
SOLID
8
barcode
10
1.6
20
1.1
30
0
11
1.7000000000000002
21
1.1
31
0
12
1.6
22
1.0
32
0
13
1.7000000000000002
23
1.0
33
0
0
SOLID
8
barcode
10
1.7000000000000002
20
1.1
30
0
11
1.8000000000000003
21
1.1
31
0
12
1.7000000000000002
22
1.0
32
0
13
1.8000000000000003
23
1.0
33
0
0
SOLID
8
barcode
10
0.0
20
1.0
30
0
11
0.1
21
1.0
31
0
12
0.0
22
0.9
32
0
13
0.1
23
0.9
33
0
0
SOLID
8
barcode
10
0.1
20
1.0
30
0
11
0.2
21
1.0
31
0
12
0.1
22
0.9
32
0
13
0.2
23
0.9
33
0
0
SOLID
8
barcode
10
0.4
20
1.0
30
0
11
0.5
21
1.0
31
0
12
0.4
22
0.9
32
0
13
0.5
23
0.9
33
0
0
SOLID
8
barcode
10
0.5
20
1.0
30
0
11
0.6
21
1.0
31
0
12
0.5
22
0.9
32
0
13
0.6
23
0.9
33
0
0
SOLID
8
barcode
10
0.6000000000000001
20
1.0
30
0
11
0.7000000000000001
21
1.0
31
0
12
0.6000000000000001
22
0.9
32
0
13
0.7000000000000001
23
0.9
33
0
0
SOLID
8
barcode
10
0.9
20
1.0
30
0
11
1.0
21
1.0
31
0
12
0.9
22
0.9
32
0
13
1.0
23
0.9
33
0
0
SOLID
8
barcode
10
1.0
20
1.0
30
0
11
1.1
21
1.0
31
0
12
1.0
22
0.9
32
0
13
1.1
23
0.9
33
0
0
SOLID
8
barcode
10
1.4000000000000001
20
1.0
30
0
11
1.5000000000000002
21
1.0
31
0
12
1.4000000000000001
22
0.9
32
0
13
1.5000000000000002
23
0.9
33
0
0
SOLID
8
barcode
10
1.5
20
1.0
30
0
11
1.6
21
1.0
31
0
12
1.5
22
0.9
32
0
13
1.6
23
0.9
33
0
0
SOLID
8
barcode
10
1.6
20
1.0
30
0
11
1.7000000000000002
21
1.0
31
0
12
1.6
22
0.9
32
0
13
1.7000000000000002
23
0.9
33
0
0
SOLID
8
barcode
10
1.7000000000000002
20
1.0
30
0
11
1.8000000000000003
21
1.0
31
0
12
1.7000000000000002
22
0.9
32
0
13
1.8000000000000003
23
0.9
33
0
0
SOLID
8
barcode
10
0.0
20
0.9
30
0
11
0.1
21
0.9
31
0
12
0.0
22
0.8
32
0
13
0.1
23
0.8
33
0
0
SOLID
8
barcode
10
0.1
20
0.9
30
0
11
0.2
21
0.9
31
0
12
0.1
22
0.8
32
0
13
0.2
23
0.8
33
0
0
SOLID
8
barcode
10
0.30000000000000004
20
0.9
30
0
11
0.4
21
0.9
31
0
12
0.30000000000000004
22
0.8
32
0
13
0.4
23
0.8
33
0
0
SOLID
8
barcode
10
0.7000000000000001
20
0.9
30
0
11
0.8
21
0.9
31
0
12
0.7000000000000001
22
0.8
32
0
13
0.8
23
0.8
33
0
0
SOLID
8
barcode
10
0.9
20
0.9
30
0
11
1.0
21
0.9
31
0
12
0.9
22
0.8
32
0
13
1.0
23
0.8
33
0
0
SOLID
8
barcode
10
1.0
20
0.9
30
0
11
1.1
21
0.9
31
0
12
1.0
22
0.8
32
0
13
1.1
23
0.8
33
0
0
SOLID
8
barcode
10
1.1
20
0.9
30
0
11
1.2000000000000002
21
0.9
31
0
12
1.1
22
0.8
32
0
13
1.2000000000000002
23
0.8
33
0
0
SOLID
8
barcode
10
1.2000000000000002
20
0.9
30
0
11
1.3000000000000003
21
0.9
31
0
12
1.2000000000000002
22
0.8
32
0
13
1.3000000000000003
23
0.8
33
0
0
SOLID
8
barcode
10
1.3
20
0.9
30
0
11
1.4000000000000001
21
0.9
31
0
12
1.3
22
0.8
32
0
13
1.4000000000000001
23
0.8
33
0
0
SOLID
8
barcode
10
1.6
20
0.9
30
0
11
1.7000000000000002
21
0.9
31
0
12
1.6
22
0.8
32
0
13
1.7000000000000002
23
0.8
33
0
0
SOLID
8
barcode
10
1.7000000000000002
20
0.9
30
0
11
1.8000000000000003
21
0.9
31
0
12
1.7000000000000002
22
0.8
32
0
13
1.8000000000000003
23
0.8
33
0
0
SOLID
8
barcode
10
0.0
20
0.8
30
0
11
0.1
21
0.8
31
0
12
0.0
22
0.7000000000000001
32
0
13
0.1
23
0.7000000000000001
33
0
0
SOLID
8
barcode
10
0.1
20
0.8
30
0
11
0.2
21
0.8
31
0
12
0.1
22
0.7000000000000001
32
0
13
0.2
23
0.7000000000000001
33
0
0
SOLID
8
barcode
10
0.6000000000000001
20
0.8
30
0
11
0.7000000000000001
21
0.8
31
0
12
0.6000000000000001
22
0.7000000000000001
32
0
13
0.7000000000000001
23
0.7000000000000001
33
0
0
SOLID
8
barcode
10
1.0
20
0.8
30
0
11
1.1
21
0.8
31
0
12
1.0
22
0.7000000000000001
32
0
13
1.1
23
0.7000000000000001
33
0
0
SOLID
8
barcode
10
1.1
20
0.8
30
0
11
1.2000000000000002
21
0.8
31
0
12
1.1
22
0.7000000000000001
32
0
13
1.2000000000000002
23
0.7000000000000001
33
0
0
SOLID
8
barcode
10
1.3
20
0.8
30
0
11
1.4000000000000001
21
0.8
31
0
12
1.3
22
0.7000000000000001
32
0
13
1.4000000000000001
23
0.7000000000000001
33
0
0
SOLID
8
barcode
10
1.5
20
0.8
30
0
11
1.6
21
0.8
31
0
12
1.5
22
0.7000000000000001
32
0
13
1.6
23
0.7000000000000001
33
0
0
SOLID
8
barcode
10
1.6
20
0.8
30
0
11
1.7000000000000002
21
0.8
31
0
12
1.6
22
0.7000000000000001
32
0
13
1.7000000000000002
23
0.7000000000000001
33
0
0
SOLID
8
barcode
10
1.7000000000000002
20
0.8
30
0
11
1.8000000000000003
21
0.8
31
0
12
1.7000000000000002
22
0.7000000000000001
32
0
13
1.8000000000000003
23
0.7000000000000001
33
0
0
SOLID
8
barcode
10
0.0
20
0.7000000000000001
30
0
11
0.1
21
0.7000000000000001
31
0
12
0.0
22
0.6000000000000001
32
0
13
0.1
23
0.6000000000000001
33
0
0
SOLID
8
barcode
10
0.1
20
0.7000000000000001
30
0
11
0.2
21
0.7000000000000001
31
0
12
0.1
22
0.6000000000000001
32
0
13
0.2
23
0.6000000000000001
33
0
0
SOLID
8
barcode
10
0.30000000000000004
20
0.7000000000000001
30
0
11
0.4
21
0.7000000000000001
31
0
12
0.30000000000000004
22
0.6000000000000001
32
0
13
0.4
23
0.6000000000000001
33
0
0
SOLID
8
barcode
10
0.5
20
0.7000000000000001
30
0
11
0.6
21
0.7000000000000001
31
0
12
0.5
22
0.6000000000000001
32
0
13
0.6
23
0.6000000000000001
33
0
0
SOLID
8
barcode
10
1.0
20
0.7000000000000001
30
0
11
1.1
21
0.7000000000000001
31
0
12
1.0
22
0.6000000000000001
32
0
13
1.1
23
0.6000000000000001
33
0
0
SOLID
8
barcode
10
1.1
20
0.7000000000000001
30
0
11
1.2000000000000002
21
0.7000000000000001
31
0
12
1.1
22
0.6000000000000001
32
0
13
1.2000000000000002
23
0.6000000000000001
33
0
0
SOLID
8
barcode
10
1.2000000000000002
20
0.7000000000000001
30
0
11
1.3000000000000003
21
0.7000000000000001
31
0
12
1.2000000000000002
22
0.6000000000000001
32
0
13
1.3000000000000003
23
0.6000000000000001
33
0
0
SOLID
8
barcode
10
1.3
20
0.7000000000000001
30
0
11
1.4000000000000001
21
0.7000000000000001
31
0
12
1.3
22
0.6000000000000001
32
0
13
1.4000000000000001
23
0.6000000000000001
33
0
0
SOLID
8
barcode
10
1.4000000000000001
20
0.7000000000000001
30
0
11
1.5000000000000002
21
0.7000000000000001
31
0
12
1.4000000000000001
22
0.6000000000000001
32
0
13
1.5000000000000002
23
0.6000000000000001
33
0
0
SOLID
8
barcode
10
1.6
20
0.7000000000000001
30
0
11
1.7000000000000002
21
0.7000000000000001
31
0
12
1.6
22
0.6000000000000001
32
0
13
1.7000000000000002
23
0.6000000000000001
33
0
0
SOLID
8
barcode
10
1.7000000000000002
20
0.7000000000000001
30
0
11
1.8000000000000003
21
0.7000000000000001
31
0
12
1.7000000000000002
22
0.6000000000000001
32
0
13
1.8000000000000003
23
0.6000000000000001
33
0
0
SOLID
8
barcode
10
0.0
20
0.6000000000000001
30
0
11
0.1
21
0.6000000000000001
31
0
12
0.0
22
0.5000000000000001
32
0
13
0.1
23
0.5000000000000001
33
0
0
SOLID
8
barcode
10
0.1
20
0.6000000000000001
30
0
11
0.2
21
0.6000000000000001
31
0
12
0.1
22
0.5000000000000001
32
0
13
0.2
23
0.5000000000000001
33
0
0
SOLID
8
barcode
10
0.30000000000000004
20
0.6000000000000001
30
0
11
0.4
21
0.6000000000000001
31
0
12
0.30000000000000004
22
0.5000000000000001
32
0
13
0.4
23
0.5000000000000001
33
0
0
SOLID
8
barcode
10
0.7000000000000001
20
0.6000000000000001
30
0
11
0.8
21
0.6000000000000001
31
0
12
0.7000000000000001
22
0.5000000000000001
32
0
13
0.8
23
0.5000000000000001
33
0
0
SOLID
8
barcode
10
1.2000000000000002
20
0.6000000000000001
30
0
11
1.3000000000000003
21
0.6000000000000001
31
0
12
1.2000000000000002
22
0.5000000000000001
32
0
13
1.3000000000000003
23
0.5000000000000001
33
0
0
SOLID
8
barcode
10
1.4000000000000001
20
0.6000000000000001
30
0
11
1.5000000000000002
21
0.6000000000000001
31
0
12
1.4000000000000001
22
0.5000000000000001
32
0
13
1.5000000000000002
23
0.5000000000000001
33
0
0
SOLID
8
barcode
10
1.5
20
0.6000000000000001
30
0
11
1.6
21
0.6000000000000001
31
0
12
1.5
22
0.5000000000000001
32
0
13
1.6
23
0.5000000000000001
33
0
0
SOLID
8
barcode
10
1.6
20
0.6000000000000001
30
0
11
1.7000000000000002
21
0.6000000000000001
31
0
12
1.6
22
0.5000000000000001
32
0
13
1.7000000000000002
23
0.5000000000000001
33
0
0
SOLID
8
barcode
10
1.7000000000000002
20
0.6000000000000001
30
0
11
1.8000000000000003
21
0.6000000000000001
31
0
12
1.7000000000000002
22
0.5000000000000001
32
0
13
1.8000000000000003
23
0.5000000000000001
33
0
0
SOLID
8
barcode
10
0.0
20
0.5
30
0
11
0.1
21
0.5
31
0
12
0.0
22
0.4
32
0
13
0.1
23
0.4
33
0
0
SOLID
8
barcode
10
0.1
20
0.5
30
0
11
0.2
21
0.5
31
0
12
0.1
22
0.4
32
0
13
0.2
23
0.4
33
0
0
SOLID
8
barcode
10
0.30000000000000004
20
0.5
30
0
11
0.4
21
0.5
31
0
12
0.30000000000000004
22
0.4
32
0
13
0.4
23
0.4
33
0
0
SOLID
8
barcode
10
0.4
20
0.5
30
0
11
0.5
21
0.5
31
0
12
0.4
22
0.4
32
0
13
0.5
23
0.4
33
0
0
SOLID
8
barcode
10
0.8
20
0.5
30
0
11
0.9
21
0.5
31
0
12
0.8
22
0.4
32
0
13
0.9
23
0.4
33
0
0
SOLID
8
barcode
10
0.9
20
0.5
30
0
11
1.0
21
0.5
31
0
12
0.9
22
0.4
32
0
13
1.0
23
0.4
33
0
0
SOLID
8
barcode
10
1.1
20
0.5
30
0
11
1.2000000000000002
21
0.5
31
0
12
1.1
22
0.4
32
0
13
1.2000000000000002
23
0.4
33
0
0
SOLID
8
barcode
10
1.3
20
0.5
30
0
11
1.4000000000000001
21
0.5
31
0
12
1.3
22
0.4
32
0
13
1.4000000000000001
23
0.4
33
0
0
SOLID
8
barcode
10
1.4000000000000001
20
0.5
30
0
11
1.5000000000000002
21
0.5
31
0
12
1.4000000000000001
22
0.4
32
0
13
1.5000000000000002
23
0.4
33
0
0
SOLID
8
barcode
10
1.6
20
0.5
30
0
11
1.7000000000000002
21
0.5
31
0
12
1.6
22
0.4
32
0
13
1.7000000000000002
23
0.4
33
0
0
SOLID
8
barcode
10
1.7000000000000002
20
0.5
30
0
11
1.8000000000000003
21
0.5
31
0
12
1.7000000000000002
22
0.4
32
0
13
1.8000000000000003
23
0.4
33
0
0
SOLID
8
barcode
10
0.0
20
0.4
30
0
11
0.1
21
0.4
31
0
12
0.0
22
0.30000000000000004
32
0
13
0.1
23
0.30000000000000004
33
0
0
SOLID
8
barcode
10
0.1
20
0.4
30
0
11
0.2
21
0.4
31
0
12
0.1
22
0.30000000000000004
32
0
13
0.2
23
0.30000000000000004
33
0
0
SOLID
8
barcode
10
0.4
20
0.4
30
0
11
0.5
21
0.4
31
0
12
0.4
22
0.30000000000000004
32
0
13
0.5
23
0.30000000000000004
33
0
0
SOLID
8
barcode
10
0.5
20
0.4
30
0
11
0.6
21
0.4
31
0
12
0.5
22
0.30000000000000004
32
0
13
0.6
23
0.30000000000000004
33
0
0
SOLID
8
barcode
10
0.8
20
0.4
30
0
11
0.9
21
0.4
31
0
12
0.8
22
0.30000000000000004
32
0
13
0.9
23
0.30000000000000004
33
0
0
SOLID
8
barcode
10
0.9
20
0.4
30
0
11
1.0
21
0.4
31
0
12
0.9
22
0.30000000000000004
32
0
13
1.0
23
0.30000000000000004
33
0
0
SOLID
8
barcode
10
1.0
20
0.4
30
0
11
1.1
21
0.4
31
0
12
1.0
22
0.30000000000000004
32
0
13
1.1
23
0.30000000000000004
33
0
0
SOLID
8
barcode
10
1.2000000000000002
20
0.4
30
0
11
1.3000000000000003
21
0.4
31
0
12
1.2000000000000002
22
0.30000000000000004
32
0
13
1.3000000000000003
23
0.30000000000000004
33
0
0
SOLID
8
barcode
10
1.5
20
0.4
30
0
11
1.6
21
0.4
31
0
12
1.5
22
0.30000000000000004
32
0
13
1.6
23
0.30000000000000004
33
0
0
SOLID
8
barcode
10
1.6
20
0.4
30
0
11
1.7000000000000002
21
0.4
31
0
12
1.6
22
0.30000000000000004
32
0
13
1.7000000000000002
23
0.30000000000000004
33
0
0
SOLID
8
barcode
10
1.7000000000000002
20
0.4
30
0
11
1.8000000000000003
21
0.4
31
0
12
1.7000000000000002
22
0.30000000000000004
32
0
13
1.8000000000000003
23
0.30000000000000004
33
0
0
SOLID
8
barcode
10
0.0
20
0.30000000000000004
30
0
11
0.1
21
0.30000000000000004
31
0
12
0.0
22
0.20000000000000004
32
0
13
0.1
23
0.20000000000000004
33
0
0
SOLID
8
barcode
10
0.1
20
0.30000000000000004
30
0
11
0.2
21
0.30000000000000004
31
0
12
0.1
22
0.20000000000000004
32
0
13
0.2
23
0.20000000000000004
33
0
0
SOLID
8
barcode
10
1.6
20
0.30000000000000004
30
0
11
1.7000000000000002
21
0.30000000000000004
31
0
12
1.6
22
0.20000000000000004
32
0
13
1.7000000000000002
23
0.20000000000000004
33
0
0
SOLID
8
barcode
10
1.7000000000000002
20
0.30000000000000004
30
0
11
1.8000000000000003
21
0.30000000000000004
31
0
12
1.7000000000000002
22
0.20000000000000004
32
0
13
1.8000000000000003
23
0.20000000000000004
33
0
0
SOLID
8
barcode
10
0.0
20
0.2
30
0
11
0.1
21
0.2
31
0
12
0.0
22
0.1
32
0
13
0.1
23
0.1
33
0
0
SOLID
8
barcode
10
0.1
20
0.2
30
0
11
0.2
21
0.2
31
0
12
0.1
22
0.1
32
0
13
0.2
23
0.1
33
0
0
SOLID
8
barcode
10
0.2
20
0.2
30
0
11
0.30000000000000004
21
0.2
31
0
12
0.2
22
0.1
32
0
13
0.30000000000000004
23
0.1
33
0
0
SOLID
8
barcode
10
0.30000000000000004
20
0.2
30
0
11
0.4
21
0.2
31
0
12
0.30000000000000004
22
0.1
32
0
13
0.4
23
0.1
33
0
0
SOLID
8
barcode
10
0.4
20
0.2
30
0
11
0.5
21
0.2
31
0
12
0.4
22
0.1
32
0
13
0.5
23
0.1
33
0
0
SOLID
8
barcode
10
0.5
20
0.2
30
0
11
0.6
21
0.2
31
0
12
0.5
22
0.1
32
0
13
0.6
23
0.1
33
0
0
SOLID
8
barcode
10
0.6000000000000001
20
0.2
30
0
11
0.7000000000000001
21
0.2
31
0
12
0.6000000000000001
22
0.1
32
0
13
0.7000000000000001
23
0.1
33
0
0
SOLID
8
barcode
10
0.7000000000000001
20
0.2
30
0
11
0.8
21
0.2
31
0
12
0.7000000000000001
22
0.1
32
0
13
0.8
23
0.1
33
0
0
SOLID
8
barcode
10
0.8
20
0.2
30
0
11
0.9
21
0.2
31
0
12
0.8
22
0.1
32
0
13
0.9
23
0.1
33
0
0
SOLID
8
barcode
10
0.9
20
0.2
30
0
11
1.0
21
0.2
31
0
12
0.9
22
0.1
32
0
13
1.0
23
0.1
33
0
0
SOLID
8
barcode
10
1.0
20
0.2
30
0
11
1.1
21
0.2
31
0
12
1.0
22
0.1
32
0
13
1.1
23
0.1
33
0
0
SOLID
8
barcode
10
1.1
20
0.2
30
0
11
1.2000000000000002
21
0.2
31
0
12
1.1
22
0.1
32
0
13
1.2000000000000002
23
0.1
33
0
0
SOLID
8
barcode
10
1.2000000000000002
20
0.2
30
0
11
1.3000000000000003
21
0.2
31
0
12
1.2000000000000002
22
0.1
32
0
13
1.3000000000000003
23
0.1
33
0
0
SOLID
8
barcode
10
1.3
20
0.2
30
0
11
1.4000000000000001
21
0.2
31
0
12
1.3
22
0.1
32
0
13
1.4000000000000001
23
0.1
33
0
0
SOLID
8
barcode
10
1.4000000000000001
20
0.2
30
0
11
1.5000000000000002
21
0.2
31
0
12
1.4000000000000001
22
0.1
32
0
13
1.5000000000000002
23
0.1
33
0
0
SOLID
8
barcode
10
1.5
20
0.2
30
0
11
1.6
21
0.2
31
0
12
1.5
22
0.1
32
0
13
1.6
23
0.1
33
0
0
SOLID
8
barcode
10
1.6
20
0.2
30
0
11
1.7000000000000002
21
0.2
31
0
12
1.6
22
0.1
32
0
13
1.7000000000000002
23
0.1
33
0
0
SOLID
8
barcode
10
1.7000000000000002
20
0.2
30
0
11
1.8000000000000003
21
0.2
31
0
12
1.7000000000000002
22
0.1
32
0
13
1.8000000000000003
23
0.1
33
0
0
SOLID
8
barcode
10
0.0
20
0.1
30
0
11
0.1
21
0.1
31
0
12
0.0
22
0.0
32
0
13
0.1
23
0.0
33
0
0
SOLID
8
barcode
10
0.1
20
0.1
30
0
11
0.2
21
0.1
31
0
12
0.1
22
0.0
32
0
13
0.2
23
0.0
33
0
0
SOLID
8
barcode
10
0.2
20
0.1
30
0
11
0.30000000000000004
21
0.1
31
0
12
0.2
22
0.0
32
0
13
0.30000000000000004
23
0.0
33
0
0
SOLID
8
barcode
10
0.30000000000000004
20
0.1
30
0
11
0.4
21
0.1
31
0
12
0.30000000000000004
22
0.0
32
0
13
0.4
23
0.0
33
0
0
SOLID
8
barcode
10
0.4
20
0.1
30
0
11
0.5
21
0.1
31
0
12
0.4
22
0.0
32
0
13
0.5
23
0.0
33
0
0
SOLID
8
barcode
10
0.5
20
0.1
30
0
11
0.6
21
0.1
31
0
12
0.5
22
0.0
32
0
13
0.6
23
0.0
33
0
0
SOLID
8
barcode
10
0.6000000000000001
20
0.1
30
0
11
0.7000000000000001
21
0.1
31
0
12
0.6000000000000001
22
0.0
32
0
13
0.7000000000000001
23
0.0
33
0
0
SOLID
8
barcode
10
0.7000000000000001
20
0.1
30
0
11
0.8
21
0.1
31
0
12
0.7000000000000001
22
0.0
32
0
13
0.8
23
0.0
33
0
0
SOLID
8
barcode
10
0.8
20
0.1
30
0
11
0.9
21
0.1
31
0
12
0.8
22
0.0
32
0
13
0.9
23
0.0
33
0
0
SOLID
8
barcode
10
0.9
20
0.1
30
0
11
1.0
21
0.1
31
0
12
0.9
22
0.0
32
0
13
1.0
23
0.0
33
0
0
SOLID
8
barcode
10
1.0
20
0.1
30
0
11
1.1
21
0.1
31
0
12
1.0
22
0.0
32
0
13
1.1
23
0.0
33
0
0
SOLID
8
barcode
10
1.1
20
0.1
30
0
11
1.2000000000000002
21
0.1
31
0
12
1.1
22
0.0
32
0
13
1.2000000000000002
23
0.0
33
0
0
SOLID
8
barcode
10
1.2000000000000002
20
0.1
30
0
11
1.3000000000000003
21
0.1
31
0
12
1.2000000000000002
22
0.0
32
0
13
1.3000000000000003
23
0.0
33
0
0
SOLID
8
barcode
10
1.3
20
0.1
30
0
11
1.4000000000000001
21
0.1
31
0
12
1.3
22
0.0
32
0
13
1.4000000000000001
23
0.0
33
0
0
SOLID
8
barcode
10
1.4000000000000001
20
0.1
30
0
11
1.5000000000000002
21
0.1
31
0
12
1.4000000000000001
22
0.0
32
0
13
1.5000000000000002
23
0.0
33
0
0
SOLID
8
barcode
10
1.5
20
0.1
30
0
11
1.6
21
0.1
31
0
12
1.5
22
0.0
32
0
13
1.6
23
0.0
33
0
0
SOLID
8
barcode
10
1.6
20
0.1
30
0
11
1.7000000000000002
21
0.1
31
0
12
1.6
22
0.0
32
0
13
1.7000000000000002
23
0.0
33
0
0
SOLID
8
barcode
10
1.7000000000000002
20
0.1
30
0
11
1.8000000000000003
21
0.1
31
0
12
1.7000000000000002
22
0.0
32
0
13
1.8000000000000003
23
0.0
33
0
0
ENDSEC
0
EOF
